<?xml version="1.0" standalone="no"?>
<!DOCTYPE svg PUBLIC "-//W3C//DTD SVG 20010904//EN"
 "http://www.w3.org/TR/2001/REC-SVG-20010904/DTD/svg10.dtd">
<svg version="1.0" xmlns="http://www.w3.org/2000/svg"
 width="192.000000pt" height="192.000000pt" viewBox="0 0 192.000000 192.000000"
 preserveAspectRatio="xMidYMid meet">
<metadata>
Created by potrace 1.11, written by Peter Selinger 2001-2013
</metadata>
<g transform="translate(0.000000,192.000000) scale(0.100000,-0.100000)"
fill="#000000" stroke="none">
<path d="M0 960 l0 -960 960 0 960 0 0 960 0 960 -960 0 -960 0 0 -960z m510
133 c36 -122 67 -224 70 -227 3 -3 35 97 72 222 l65 227 122 3 121 3 0 -336 0
-336 -82 3 -83 3 1 225 c0 124 -2 218 -5 210 -3 -8 -33 -109 -66 -225 l-60
-210 -87 -3 -87 -3 -19 63 c-10 35 -39 134 -63 221 l-44 159 -3 -221 -2 -221
-80 0 -80 0 0 335 0 336 122 -3 122 -3 66 -222z m950 10 c62 -120 115 -221
119 -225 3 -4 5 94 3 217 l-3 225 85 0 86 0 0 -335 0 -335 -122 0 -123 0 -109
213 c-60 116 -114 219 -120 228 -8 12 -10 -45 -8 -212 l4 -229 -81 0 c-77 0
-81 1 -82 23 -1 27 -1 629 0 640 1 4 54 7 119 7 l119 0 113 -217z"/>
</g>
</svg>
